HIERARCHY
ROOT Hips
{
     OFFSET 1.88212 96.90440 -13.34250
     CHANNELS 6 Xposition Yposition Zposition Zrotation Xrotation Yrotation
     JOINT Spine
     {
          OFFSET 0.00000 11.89050 0.00000
          CHANNELS 3 Zrotation Xrotation Yrotation
          JOINT Spine1
          {
               OFFSET -0.00000 25.65740 0.12766
               CHANNELS 3 Zrotation Xrotation Yrotation
               JOINT HEad
               {
                    OFFSET 0.00000 8.73416 0.01134
                    CHANNELS 3 Zrotation Xrotation Yrotation
                    End Site
                    {
                         OFFSET -0.29000 12.77420 2.51395
                    }
               }
               JOINT LeftShoulder1
               {
                    OFFSET 8.99000 -0.36225 -0.22000
                    CHANNELS 3 Zrotation Xrotation Yrotation
                    JOINT LeftArm
                    {
                         OFFSET 10.28270 -0.00338 0.32212
                         CHANNELS 3 Zrotation Xrotation Yrotation
                         JOINT LeftForeArm
                         {
                              OFFSET 32.76690 0.09914 -1.42434
                              CHANNELS 3 Zrotation Xrotation Yrotation
                              JOINT LeftHand
                              {
                                   OFFSET 27.56430 0.08536 1.02216
                                   CHANNELS 3 Zrotation Xrotation Yrotation
                                   End Site
                                   {
                                        OFFSET 16.74430 -0.60000 1.50291
                                   }
                              }
                         }
                    }
               }
               JOINT RightShoulder
               {
                    OFFSET -8.99000 -0.36225 -0.22000
                    CHANNELS 3 Zrotation Xrotation Yrotation
                    JOINT RightArm
                    {
                         OFFSET -10.28270 -0.00338 0.32212
                         CHANNELS 3 Zrotation Xrotation Yrotation
                         JOINT RightForeArm
                         {
                              OFFSET -32.89710 0.09914 -1.42434
                              CHANNELS 3 Zrotation Xrotation Yrotation
                              JOINT RightHand
                              {
                                   OFFSET -27.49210 0.08536 1.02216
                                   CHANNELS 3 Zrotation Xrotation Yrotation
                                   End Site
                                   {
                                        OFFSET -16.63120 -0.60000 1.50291
                                   }
                              }
                         }
                    }
               }
          }
     }
     JOINT LeftUpLeg
     {
          OFFSET 8.94580 -8.66707 0.10165
          CHANNELS 3 Zrotation Xrotation Yrotation
          JOINT LeftLeg
          {
               OFFSET 0.00000 -44.42270 1.37270
               CHANNELS 3 Zrotation Xrotation Yrotation
               JOINT LeftFoot
               {
                    OFFSET -0.25355 -42.09240 -1.46059
                    CHANNELS 3 Zrotation Xrotation Yrotation
                    JOINT LeftToes
                    {
                         OFFSET -0.04000 -4.41509 8.49910
                         CHANNELS 3 Zrotation Xrotation Yrotation
                         End Site
                         {
                              OFFSET 0.08000 -0.04745 9.77979
                         }
                    }
               }
          }
     }
     JOINT RightUpLeg
     {
          OFFSET -8.94580 -8.66707 0.10165
          CHANNELS 3 Zrotation Xrotation Yrotation
          JOINT RightLeg
          {
               OFFSET 0.00000 -44.42270 1.37270
               CHANNELS 3 Zrotation Xrotation Yrotation
               JOINT RightFoot
               {
                    OFFSET 0.25355 -42.09240 -1.46059
                    CHANNELS 3 Zrotation Xrotation Yrotation
                    JOINT RightToes
                    {
                         OFFSET 0.04000 -4.41509 8.49910
                         CHANNELS 3 Zrotation Xrotation Yrotation
                         End Site
                         {
                              OFFSET -0.08000 -0.13745 9.77979
                         }
                    }
               }
          }
     }
}
MOTION
Frames: 18
Frame Time: 0.01667
-47.21925 88.90919 294.96906 10.58816 -12.57553 43.23114 -0.06635 24.60106 -2.02140 0.00163 0.03184 -0.01168 1.26356 4.26547 13.92497 -1.02268 7.84244 1.08167 -90.22355 -54.79642 -77.37380 -24.42889 41.24853 -86.03465 18.05592 2.96154 -15.05080 18.32619 8.39560 -2.24048 84.72681 0.41042 71.96092 6.31805 31.52462 109.19833 21.11374 10.60301 -1.24056 23.19808 -4.75019 -2.17010 -36.30222 8.58751 70.49955 22.47002 0.00475 0.00381 -12.48094 -20.81448 -74.55307 -28.34633 -0.83664 19.23990 43.10468 36.25544 -50.92419 -25.01858 0.02929 0.02396 11.55535 -40.39625 15.90689 
-46.79971 89.39510 294.93079 10.62556 -12.30265 43.10902 -1.12599 25.57055 -1.61904 -0.00113 0.03205 0.01095 1.53762 3.95663 12.84238 -0.37431 7.34910 1.08540 -91.83910 -54.32082 -78.48324 -28.20602 42.71588 -84.78369 15.55929 -2.41745 -17.96495 18.29606 7.87447 -2.46570 84.17340 -1.29611 70.37317 5.47086 31.12239 109.91711 24.52097 9.91705 -7.88959 22.09576 -5.91577 -3.79844 -35.35172 9.61787 71.19530 22.47266 0.00465 0.00376 -16.90663 -18.93976 -83.14010 -28.40851 0.30726 19.11459 43.46395 37.17885 -50.30429 -23.99483 0.01652 0.03286 14.54652 -40.25921 15.75065 
-46.43050 89.78418 294.91629 10.66570 -12.04087 43.06602 -2.16637 26.77771 -0.92917 -0.00173 0.02320 0.02478 1.95536 3.63851 10.98257 0.34324 6.72520 1.40053 -93.58777 -53.34025 -79.72706 -34.06853 44.53003 -82.60940 12.74184 -7.83576 -21.89685 15.43041 8.81510 -0.26868 85.61608 -6.05316 69.82875 4.04801 30.55398 111.10868 29.14908 9.56630 -14.55810 20.84482 -7.34850 -5.44575 -34.13121 11.12898 71.27409 22.24414 0.00123 0.00571 -21.83122 -15.64338 -92.72910 -28.55420 1.39321 18.94888 44.87471 39.02431 -49.69092 -23.77202 0.01822 0.02271 16.62367 -41.60716 15.08051 
-46.11575 90.13891 294.91309 10.75321 -11.78146 43.29828 -3.01938 28.24276 1.09006 -0.00087 0.05795 0.09314 2.67726 3.79857 6.07629 -1.13554 10.11893 12.32383 -97.10671 -40.44836 -85.77725 -46.24705 46.31581 -77.00213 18.38265 6.88329 -19.10476 6.35466 10.25925 8.52915 89.56944 -17.73064 72.02995 0.45668 27.71828 110.98315 35.35224 13.72044 -18.90012 19.15443 -9.77713 -6.96075 -32.77414 13.94384 71.46870 21.79612 -0.00580 0.00314 -21.20096 -16.48939 -86.53548 -28.92027 2.41345 18.68118 48.78987 43.40420 -48.63484 -26.28729 0.18204 -0.03782 16.68213 -47.06957 12.01676 
-45.87708 90.41733 294.91324 10.94372 -11.51757 43.77526 -3.69550 29.78822 4.24560 0.00421 0.04695 0.08626 3.65906 4.74523 -1.25422 -0.13555 9.07671 10.56505 -99.78786 -43.14243 -85.21172 -58.21675 49.41799 -72.76699 17.83000 6.81066 -20.43611 -2.78359 9.08559 15.81603 91.64478 -26.54338 73.65850 -6.42735 22.65103 107.74766 34.29754 12.11592 -22.96929 17.07438 -12.91514 -8.30144 -31.42962 18.11168 71.65023 21.02208 -0.01002 0.00519 -23.21413 -15.63700 -87.97378 -29.27164 3.35083 18.35741 50.43321 45.38140 -46.72250 -29.21482 0.12467 -0.01582 18.06045 -49.32400 9.19528 
-45.73738 90.50838 294.91501 11.26149 -11.23155 44.43788 -4.21776 31.33732 8.28172 0.00778 0.04298 0.07258 4.84075 5.34666 -9.33974 1.01305 8.20494 7.70229 -102.41873 -48.11848 -83.35492 -69.24064 52.91640 -69.55511 20.78476 13.49091 -19.45691 -11.82171 6.58249 21.09267 92.26224 -32.70699 73.93911 -15.25673 16.81595 100.51734 36.46236 12.46195 -25.31563 14.67947 -16.54172 -9.41284 -30.19515 23.51235 71.70748 19.90712 -0.01377 0.00579 -23.90887 -15.95600 -85.64114 -29.52796 4.23942 18.00966 50.12658 45.42649 -44.10726 -32.40667 0.08350 0.03953 18.76486 -49.69268 7.06992 
-45.71360 90.48642 294.91394 11.67424 -10.93000 45.22520 -4.64256 32.89779 12.94954 0.00656 0.04429 0.05897 6.18346 5.53154 -17.83346 -0.39285 11.53972 14.87550 -104.45029 -39.17187 -85.02290 -75.44583 54.31945 -66.79772 20.16411 11.83316 -20.41021 -20.87255 3.74571 24.70051 91.77505 -36.98549 72.99770 -24.42216 12.28514 88.89627 35.27731 5.67528 -28.41910 12.09441 -20.48957 -10.22780 -29.10350 29.90102 71.53383 18.52416 -0.01498 0.00441 -25.29439 -16.05092 -85.27312 -29.90257 5.05209 17.66148 51.85866 47.22031 -44.46558 -28.62464 0.05587 0.07828 13.70955 -51.87737 5.68784 
-45.80650 90.34447 294.93286 12.15529 -10.61983 46.08476 -5.12543 34.46109 18.09678 -0.00285 0.04333 0.04534 7.70498 5.25652 -26.43442 0.63900 10.42827 9.88272 -105.07909 -41.06991 -83.66199 -72.77310 52.11953 -67.38338 18.06161 11.73732 -22.11464 -21.50119 4.21125 18.16228 81.89809 -31.21219 71.56422 -32.01774 10.23736 74.29739 40.67821 0.54351 -27.95163 9.57417 -23.61674 -11.14390 -28.00364 35.63638 70.98287 17.13505 -0.01156 0.00200 -26.30596 -16.44181 -84.05534 -30.25979 5.84317 17.32535 51.83567 47.45459 -43.86792 -24.86534 -0.01426 0.01818 8.79087 -52.08402 4.83524 
-46.01111 90.14841 294.99237 12.67778 -10.32849 46.98988 -5.85671 36.05106 23.55922 -0.01225 0.04702 0.02861 9.41611 4.43901 -34.78479 1.45684 9.28461 4.99343 -105.04796 -41.95597 -82.17404 -70.77498 51.24694 -68.32022 15.46961 8.69780 -23.64405 -22.24521 4.90882 10.94274 73.60598 -24.41937 72.86418 -34.77674 9.61042 57.36010 41.57525 -11.38456 -26.24739 7.17237 -25.97419 -12.09770 -26.75311 40.42637 70.04443 15.95644 -0.00546 0.00038 -27.36655 -16.68467 -83.36672 -30.68832 6.59932 17.02043 53.63881 49.00431 -46.20235 -30.98203 0.12413 -0.13109 15.27626 -54.39128 5.54495 
-46.31245 89.97667 295.11011 13.22239 -10.07461 47.93297 -7.14462 37.71840 29.20293 -0.02578 0.06273 0.01159 11.36074 2.93765 -42.45658 2.22539 7.94664 0.20225 -104.64980 -42.30016 -80.68809 -69.01956 51.13061 -69.48107 15.44161 8.82146 -23.36074 -22.91440 5.64321 3.93928 66.41124 -18.09410 77.40959 -32.91994 7.07523 39.04530 35.84475 1.99164 -17.62679 4.94937 -27.60135 -13.03521 -25.23103 44.07593 68.68442 15.10894 0.00088 -0.00065 -28.15930 -16.79613 -82.48433 -31.16400 7.33743 16.75168 54.76167 49.85221 -48.07064 -27.39314 0.00623 0.03670 11.72173 -55.32864 5.95848 
-46.66185 89.87651 295.30597 13.75901 -9.86001 48.90703 -8.11689 38.65430 33.50301 -0.01235 -0.01621 -0.05844 13.18485 2.10493 -48.59553 2.63978 7.58010 -3.69214 -104.11210 -42.41213 -79.34756 -67.43443 51.43439 -70.65009 14.54191 6.96310 -23.39147 -23.40299 7.08887 -1.17422 59.32698 -13.08609 84.36398 -31.43267 0.25920 20.19987 36.09270 2.05491 -18.52743 2.97300 -28.54624 -13.90156 -23.39592 46.50653 66.90973 14.61648 0.00571 -0.00200 -28.77401 -16.63312 -81.73828 -31.66478 8.07878 16.51411 55.69329 50.41315 -49.77920 -28.60736 -0.00070 -0.01125 13.61697 -56.23965 6.90332 
-46.99094 89.84711 295.59598 14.25317 -9.67273 49.89635 -8.76200 39.06283 36.47840 -0.00394 -0.00907 -0.05336 14.90758 1.66602 -53.34375 2.95952 7.81669 -6.95533 -103.70633 -42.43354 -78.30227 -66.14587 51.89987 -71.48309 14.91629 6.66546 -22.65045 -22.93386 8.83395 -4.51423 54.41290 -11.45084 88.70005 -32.22166 -5.16411 9.03297 18.98614 8.11798 4.74650 1.30177 -28.87733 -14.64617 -21.33194 47.76186 64.82688 14.42705 0.00825 -0.00372 -29.13003 -16.25211 -80.96468 -32.15147 8.83305 16.29667 56.57905 50.70050 -51.34235 -27.47043 0.00771 0.01353 13.12365 -56.83495 7.84730 
-47.26144 89.87552 295.98422 14.68481 -9.49585 50.87778 -10.35361 39.77617 38.32989 -0.02737 0.08896 -0.09900 16.81224 0.71492 -55.70897 3.48596 7.40886 -8.67372 -103.55877 -42.33123 -77.49580 -65.40362 52.69131 -71.82126 25.55690 -4.17659 -8.46355 -21.61767 9.28268 -6.50411 55.29837 -10.75309 89.28045 -33.22954 -7.35128 7.83385 21.21759 7.93051 -1.87794 -0.02818 -28.68207 -15.22935 -19.22748 47.99082 62.62870 14.44505 0.00878 -0.00506 -29.25584 -15.74735 -80.28472 -32.61665 9.60511 16.09593 57.49262 50.81048 -52.76788 -27.49488 0.00502 0.00514 13.95690 -57.44398 8.78549 
-47.46288 89.95078 296.46085 15.04297 -9.31849 51.82185 -12.53634 40.69120 38.83448 -0.01841 0.07541 -0.10825 18.63412 -0.13994 -55.91035 4.04019 6.78488 -8.94890 -103.81158 -42.14247 -76.97608 -65.30315 53.73926 -71.50619 19.26113 -0.29655 -14.06915 -19.78393 8.82844 -7.29093 59.88631 -10.90869 88.06205 -31.12605 -9.66445 17.53903 14.32438 9.13533 19.55710 -0.99782 -28.06779 -15.62676 -17.28818 47.40482 60.51965 14.56597 0.00813 -0.00546 -29.14482 -15.25645 -79.71129 -33.05272 10.38889 15.91427 58.43960 50.75980 -54.03583 -26.88258 0.00708 0.01019 14.19559 -57.95258 9.72475 
-47.59742 90.07551 296.99826 15.31732 -9.14692 52.69319 -14.97452 41.78705 37.93168 -0.00609 0.06065 -0.10518 20.24952 -0.69691 -54.15005 4.89052 5.95462 -7.78541 -105.81132 -39.01186 -74.77139 -68.40191 54.56420 -65.92606 22.58461 0.82494 -13.83851 -17.29205 7.57786 -6.98068 66.34996 -11.81901 85.73094 -25.16102 -10.65213 33.47862 18.09427 11.88063 -0.65051 -1.60004 -27.15144 -15.83198 -15.66148 46.22668 58.65298 14.70284 0.00709 -0.00504 -28.81688 -14.86986 -79.31292 -33.44810 11.16668 15.76144 59.38209 50.57386 -55.11494 -26.48751 0.00725 0.00866 14.76275 -58.37735 10.67648 
-47.66886 90.27286 297.55713 15.49379 -9.00425 53.44969 -17.38388 43.04658 35.67215 -0.00252 0.05541 -0.09617 21.55921 -0.79001 -50.75026 3.10535 11.17919 -14.92239 -111.38515 -44.91201 -85.21023 -70.94256 54.86484 -62.38084 18.21398 5.97846 -18.10790 -4.41422 11.54149 -8.28357 66.35534 -14.84005 90.36589 -15.37853 -8.56093 51.81713 12.06718 8.37031 18.21835 -1.83917 -26.04445 -15.85122 -14.41324 44.65063 57.11091 14.79650 0.00621 -0.00427 -28.27561 -14.62449 -79.09778 -33.78108 11.91057 15.65412 60.26237 50.25565 -55.95873 -25.86398 0.00784 0.00970 15.14548 -58.58344 11.61820 
-47.67501 90.55240 298.09802 15.55771 -8.92634 54.04357 -19.49334 44.49406 32.09286 0.01199 0.04947 -0.08578 22.38223 -0.37461 -45.99400 3.48165 9.53097 -10.58747 -112.22792 -43.14635 -84.01986 -72.81744 54.91837 -60.02281 20.06949 5.52664 -17.21075 -2.79878 9.41503 -4.95244 75.13680 -16.49354 86.81801 -2.87684 -2.94081 68.60406 13.33838 18.11751 -0.44830 -1.72995 -24.84328 -15.69392 -13.54603 42.83552 55.91756 14.80945 0.00572 -0.00350 -27.52392 -14.51936 -79.05813 -34.03163 12.58848 15.61787 61.01358 49.81384 -56.51021 -25.23684 0.00833 0.00915 15.50176 -58.51426 12.44299 
-47.59884 90.91183 298.57748 15.49021 -8.95801 54.42313 -21.11531 46.06690 27.32229 0.01207 0.04527 -0.07223 22.66687 0.48964 -40.17640 3.44098 8.15797 -5.42411 -112.13881 -38.14426 -82.40479 -69.00224 55.37234 -60.72712 17.19441 8.09871 -18.78539 8.96559 8.11684 -7.27189 74.57027 -14.09091 86.09343 5.61654 6.92843 79.03561 8.08765 4.65922 16.20168 -1.29442 -23.62652 -15.36871 -13.02256 40.91204 55.06315 14.71534 0.00559 -0.00288 -26.55434 -14.55476 -79.15902 -34.18400 13.16670 15.68328 61.58048 49.26183 -56.72437 -24.52432 0.00910 0.00844 15.63884 -58.14534 13.05825 
